<?xml version="1.0" encoding="utf-8"?>
<!-- Generator: Adobe Illustrator 15.0.2, SVG Export Plug-In . SVG Version: 6.00 Build 0)  -->
<!DOCTYPE svg PUBLIC "-//W3C//DTD SVG 1.1//EN" "http://www.w3.org/Graphics/SVG/1.1/DTD/svg11.dtd">
<svg version="1.1" id="Calque_1" xmlns="http://www.w3.org/2000/svg" xmlns:xlink="http://www.w3.org/1999/xlink" x="0px" y="0px"
	 width="36px" height="720px" viewBox="0 0 36 720" enable-background="new 0 0 36 720" xml:space="preserve">
<g>
	<path fill="#F44336" d="M17.999,1.999c-8.82,0-15.998,7.178-15.998,16c0,8.821,7.178,16,15.998,16c8.823,0,16.002-7.178,16.002-16
		C34.001,9.176,26.822,1.999,17.999,1.999z"/>
	<rect x="16.373" y="9.68" fill="#FFFFFF" width="3.265" height="11.956"/>
	<path fill="#FFFFFF" d="M16.369,23.967c0.095-0.207,0.226-0.374,0.384-0.498c0.162-0.124,0.35-0.215,0.563-0.268
		c0.213-0.053,0.44-0.079,0.684-0.079s0.474,0.026,0.688,0.079c0.219,0.053,0.406,0.144,0.568,0.268
		c0.159,0.124,0.285,0.291,0.379,0.498c0.092,0.206,0.141,0.459,0.141,0.759c0,0.307-0.049,0.563-0.141,0.767
		c-0.094,0.201-0.22,0.366-0.379,0.49c-0.162,0.125-0.352,0.212-0.568,0.263c-0.215,0.05-0.446,0.073-0.688,0.073
		c-0.241,0-0.471-0.023-0.684-0.073c-0.216-0.051-0.401-0.139-0.563-0.263c-0.158-0.124-0.289-0.289-0.384-0.49
		c-0.096-0.204-0.146-0.46-0.146-0.767C16.224,24.426,16.272,24.173,16.369,23.967z"/>
	<path fill="#F44336" d="M17.999,38.499c-8.545,0-15.498,6.954-15.498,15.5s6.953,15.5,15.498,15.5
		c8.549,0,15.502-6.953,15.502-15.5S26.548,38.499,17.999,38.499z"/>
	<g>
		<rect x="16.425" y="45.94" fill="#FFFFFF" width="3.161" height="11.582"/>
		<path fill="#FFFFFF" d="M16.421,59.78c0.092-0.2,0.217-0.361,0.371-0.481c0.157-0.12,0.338-0.208,0.547-0.259
			c0.205-0.051,0.428-0.077,0.661-0.077c0.234,0,0.458,0.025,0.668,0.077c0.212,0.051,0.394,0.139,0.55,0.259
			c0.155,0.12,0.277,0.282,0.368,0.481c0.089,0.2,0.136,0.445,0.136,0.735c0,0.296-0.047,0.544-0.136,0.742
			c-0.091,0.196-0.213,0.354-0.368,0.476c-0.156,0.12-0.34,0.206-0.55,0.253c-0.21,0.049-0.434,0.072-0.668,0.072
			c-0.233,0-0.456-0.023-0.661-0.072c-0.209-0.048-0.39-0.133-0.547-0.253c-0.154-0.121-0.279-0.279-0.371-0.476
			c-0.094-0.198-0.141-0.446-0.141-0.742C16.28,60.225,16.327,59.98,16.421,59.78z"/>
	</g>
	<path fill="#F44336" d="M17.999,74.999c-8.27,0-14.998,6.729-14.998,15c0,8.271,6.729,15,14.998,15c8.271,0,15.002-6.729,15.002-15
		C33.001,81.728,26.271,74.999,17.999,74.999z"/>
	<g>
		<rect x="16.474" y="82.199" fill="#FFFFFF" width="3.061" height="11.208"/>
		<path fill="#FFFFFF" d="M16.472,95.594c0.088-0.194,0.211-0.351,0.359-0.467c0.151-0.116,0.327-0.201,0.528-0.251
			c0.198-0.049,0.413-0.074,0.641-0.074s0.443,0.025,0.646,0.074c0.205,0.05,0.382,0.135,0.533,0.251
			c0.148,0.116,0.268,0.271,0.354,0.467c0.086,0.193,0.131,0.431,0.131,0.712c0,0.286-0.045,0.526-0.131,0.718
			c-0.088,0.189-0.206,0.345-0.354,0.46c-0.151,0.116-0.33,0.199-0.533,0.245c-0.202,0.047-0.418,0.07-0.646,0.07
			c-0.227,0-0.44-0.023-0.641-0.07c-0.202-0.046-0.377-0.129-0.528-0.245c-0.148-0.116-0.271-0.271-0.359-0.46
			c-0.09-0.19-0.136-0.432-0.136-0.718C16.336,96.024,16.382,95.787,16.472,95.594z"/>
	</g>
	<path fill="#F44336" d="M17.749,111.499c-7.994,0-14.498,6.504-14.498,14.501c0,7.996,6.504,14.499,14.498,14.499
		c7.997,0,14.502-6.503,14.502-14.499C32.251,118.003,25.746,111.499,17.749,111.499z"/>
	<g>
		<rect x="16.275" y="118.459" fill="#FFFFFF" width="2.958" height="10.836"/>
		<path fill="#FFFFFF" d="M16.271,131.407c0.087-0.188,0.205-0.341,0.35-0.451c0.146-0.113,0.314-0.194,0.512-0.241
			c0.191-0.05,0.398-0.074,0.618-0.074s0.429,0.024,0.625,0.074c0.197,0.047,0.368,0.128,0.515,0.241
			c0.145,0.11,0.258,0.265,0.344,0.451c0.083,0.185,0.126,0.414,0.126,0.688c0,0.277-0.043,0.51-0.126,0.692
			c-0.086,0.186-0.199,0.334-0.344,0.446c-0.146,0.113-0.317,0.192-0.515,0.236c-0.196,0.047-0.405,0.068-0.625,0.068
			s-0.427-0.021-0.618-0.068c-0.195-0.044-0.365-0.123-0.512-0.236c-0.145-0.112-0.263-0.262-0.35-0.446
			c-0.086-0.184-0.129-0.415-0.129-0.692C16.142,131.823,16.185,131.592,16.271,131.407z"/>
	</g>
	<path fill="#F44336" d="M17.999,147.999c-7.718,0-13.998,6.278-13.998,14.001c0,7.721,6.28,13.998,13.998,13.998
		c7.723,0,14.002-6.277,14.002-13.998C32.001,154.279,25.722,147.999,17.999,147.999z"/>
	<g>
		<rect x="16.576" y="154.719" fill="#FFFFFF" width="2.854" height="10.463"/>
		<path fill="#FFFFFF" d="M16.572,167.221c0.083-0.18,0.196-0.328,0.337-0.437s0.305-0.188,0.493-0.232
			c0.187-0.048,0.386-0.071,0.598-0.071s0.414,0.023,0.604,0.071c0.189,0.046,0.354,0.124,0.496,0.232
			c0.14,0.107,0.25,0.257,0.332,0.437c0.08,0.179,0.121,0.399,0.121,0.664c0,0.268-0.041,0.492-0.121,0.668
			c-0.082,0.18-0.192,0.323-0.332,0.433c-0.142,0.109-0.308,0.187-0.496,0.229c-0.189,0.046-0.393,0.065-0.604,0.065
			s-0.411-0.021-0.598-0.065c-0.188-0.042-0.353-0.118-0.493-0.229c-0.141-0.108-0.254-0.253-0.337-0.433
			c-0.083-0.176-0.125-0.4-0.125-0.668C16.447,167.62,16.489,167.4,16.572,167.221z"/>
	</g>
	<path fill="#F44336" d="M17.999,184.498c-7.441,0-13.498,6.056-13.498,13.502c0,7.444,6.057,13.498,13.498,13.498
		c7.446,0,13.502-6.054,13.502-13.498C31.501,190.554,25.445,184.498,17.999,184.498z"/>
	<g>
		<rect x="16.627" y="190.979" fill="#FFFFFF" width="2.753" height="10.09"/>
		<path fill="#FFFFFF" d="M16.623,203.033c0.08-0.173,0.19-0.315,0.325-0.42c0.136-0.104,0.294-0.181,0.477-0.226
			c0.178-0.046,0.371-0.068,0.575-0.068s0.399,0.022,0.582,0.068c0.185,0.045,0.343,0.12,0.479,0.226
			c0.133,0.104,0.24,0.247,0.318,0.42c0.077,0.173,0.118,0.387,0.118,0.642c0,0.258-0.041,0.475-0.118,0.644
			c-0.078,0.174-0.186,0.313-0.318,0.418c-0.137,0.105-0.297,0.179-0.479,0.219c-0.183,0.046-0.378,0.064-0.582,0.064
			s-0.397-0.02-0.575-0.064c-0.183-0.04-0.341-0.112-0.477-0.219c-0.135-0.104-0.245-0.244-0.325-0.418
			c-0.08-0.169-0.12-0.386-0.12-0.644C16.503,203.42,16.543,203.206,16.623,203.033z"/>
	</g>
	<path fill="#F44336" d="M17.999,220.998c-7.166,0-12.998,5.83-12.998,13.002c0,7.17,5.832,12.998,12.998,12.998
		c7.171,0,13.002-5.828,13.002-12.998C31.001,226.828,25.17,220.998,17.999,220.998z"/>
	<g>
		<rect x="16.679" y="227.239" fill="#FFFFFF" width="2.65" height="9.717"/>
		<path fill="#FFFFFF" d="M16.675,238.848c0.076-0.166,0.184-0.305,0.313-0.404c0.13-0.102,0.283-0.174,0.458-0.217
			c0.172-0.045,0.358-0.066,0.555-0.066c0.197,0,0.386,0.021,0.562,0.066c0.177,0.043,0.33,0.115,0.461,0.217
			c0.128,0.101,0.23,0.238,0.307,0.404c0.074,0.166,0.113,0.371,0.113,0.617c0,0.248-0.039,0.457-0.113,0.619
			c-0.076,0.168-0.179,0.301-0.307,0.401c-0.131,0.103-0.286,0.173-0.461,0.211c-0.176,0.043-0.364,0.063-0.562,0.063
			c-0.196,0-0.383-0.021-0.555-0.063c-0.175-0.038-0.328-0.108-0.458-0.211c-0.13-0.102-0.236-0.233-0.313-0.401
			c-0.078-0.162-0.115-0.371-0.115-0.619C16.558,239.219,16.597,239.014,16.675,238.848z"/>
	</g>
	<path fill="#F44336" d="M17.999,257.498c-6.89,0-12.498,5.605-12.498,12.502c0,6.895,5.608,12.498,12.498,12.498
		c6.896,0,12.502-5.604,12.502-12.498C30.501,263.105,24.894,257.498,17.999,257.498z"/>
	<g>
		<rect x="16.728" y="263.497" fill="#FFFFFF" width="2.55" height="9.345"/>
		<path fill="#FFFFFF" d="M16.724,274.66c0.074-0.158,0.178-0.293,0.303-0.389c0.125-0.098,0.271-0.167,0.439-0.208
			C17.632,274.02,17.81,274,17.999,274s0.37,0.021,0.539,0.063c0.17,0.041,0.316,0.11,0.443,0.208
			c0.123,0.096,0.222,0.229,0.295,0.389c0.07,0.159,0.109,0.356,0.109,0.595c0,0.237-0.039,0.438-0.109,0.595
			c-0.073,0.162-0.172,0.289-0.295,0.387c-0.127,0.099-0.274,0.167-0.443,0.203c-0.169,0.041-0.35,0.062-0.539,0.062
			s-0.367-0.021-0.533-0.062c-0.168-0.036-0.314-0.104-0.439-0.203c-0.125-0.098-0.229-0.225-0.303-0.387
			c-0.072-0.155-0.109-0.356-0.109-0.595C16.614,275.018,16.651,274.821,16.724,274.66z"/>
	</g>
	<path fill="#F44336" d="M17.999,293.998c-6.613,0-11.998,5.382-11.998,12.002c0,6.618,5.385,11.998,11.998,11.998
		c6.62,0,12.002-5.38,12.002-11.998C30.001,299.38,24.618,293.998,17.999,293.998z"/>
	<g>
		<rect x="16.779" y="299.758" fill="#FFFFFF" width="2.446" height="8.971"/>
		<path fill="#FFFFFF" d="M16.775,310.475c0.071-0.152,0.17-0.281,0.29-0.373c0.119-0.094,0.261-0.16,0.423-0.2
			c0.157-0.042,0.33-0.062,0.512-0.062c0.183,0,0.354,0.02,0.519,0.062c0.162,0.04,0.305,0.106,0.426,0.2
			c0.117,0.092,0.213,0.221,0.283,0.373c0.067,0.153,0.104,0.342,0.104,0.57c0,0.228-0.035,0.422-0.104,0.569
			c-0.07,0.156-0.166,0.278-0.283,0.372c-0.121,0.094-0.264,0.16-0.426,0.194c-0.162,0.04-0.336,0.059-0.519,0.059
			c-0.182,0-0.354-0.019-0.512-0.059c-0.162-0.034-0.304-0.102-0.423-0.194c-0.12-0.093-0.219-0.216-0.29-0.372
			c-0.07-0.147-0.104-0.342-0.104-0.569C16.671,310.817,16.705,310.628,16.775,310.475z"/>
	</g>
	<path fill="#F44336" d="M17.999,330.498c-6.338,0-11.498,5.156-11.498,11.502c0,6.344,5.16,11.498,11.498,11.498
		c6.344,0,11.502-5.154,11.502-11.498C29.501,335.656,24.343,330.498,17.999,330.498z"/>
	<g>
		<rect x="16.83" y="336.018" fill="#FFFFFF" width="2.345" height="8.598"/>
		<path fill="#FFFFFF" d="M16.826,346.287c0.067-0.146,0.163-0.27,0.278-0.356c0.115-0.09,0.25-0.153,0.404-0.192
			c0.151-0.04,0.316-0.059,0.49-0.059s0.342,0.019,0.496,0.059c0.156,0.039,0.292,0.104,0.408,0.192
			c0.113,0.088,0.204,0.212,0.271,0.356c0.065,0.147,0.1,0.327,0.1,0.548c0,0.219-0.034,0.403-0.1,0.546
			c-0.067,0.149-0.158,0.268-0.271,0.356c-0.116,0.09-0.253,0.153-0.408,0.187c-0.154,0.039-0.322,0.057-0.496,0.057
			s-0.339-0.018-0.49-0.057c-0.154-0.032-0.289-0.097-0.404-0.187s-0.211-0.207-0.278-0.356c-0.067-0.143-0.101-0.327-0.101-0.546
			C16.726,346.615,16.759,346.436,16.826,346.287z"/>
	</g>
	<path fill="#F44336" d="M17.999,402.498c-6.338,0-11.498,5.156-11.498,11.502c0,6.344,5.16,11.498,11.498,11.498
		c6.344,0,11.502-5.154,11.502-11.498C29.501,407.656,24.343,402.498,17.999,402.498z"/>
	<g>
		<rect x="16.83" y="408.018" fill="#FFFFFF" width="2.345" height="8.598"/>
		<path fill="#FFFFFF" d="M16.826,418.287c0.067-0.146,0.163-0.27,0.278-0.356c0.115-0.09,0.25-0.153,0.404-0.192
			c0.151-0.04,0.316-0.059,0.49-0.059s0.342,0.019,0.496,0.059c0.156,0.039,0.292,0.104,0.408,0.192
			c0.113,0.088,0.204,0.212,0.271,0.356c0.065,0.147,0.1,0.327,0.1,0.548c0,0.219-0.034,0.403-0.1,0.546
			c-0.067,0.149-0.158,0.268-0.271,0.356c-0.116,0.09-0.253,0.153-0.408,0.187c-0.154,0.039-0.322,0.057-0.496,0.057
			s-0.339-0.018-0.49-0.057c-0.154-0.032-0.289-0.097-0.404-0.187s-0.211-0.207-0.278-0.356c-0.067-0.143-0.101-0.327-0.101-0.546
			C16.726,418.615,16.759,418.436,16.826,418.287z"/>
	</g>
	<path fill="#F44336" d="M17.999,437.998c-6.613,0-11.998,5.382-11.998,12.002c0,6.618,5.385,11.998,11.998,11.998
		c6.62,0,12.002-5.38,12.002-11.998C30.001,443.38,24.618,437.998,17.999,437.998z"/>
	<g>
		<rect x="16.779" y="443.758" fill="#FFFFFF" width="2.446" height="8.971"/>
		<path fill="#FFFFFF" d="M16.774,454.475c0.072-0.152,0.17-0.281,0.291-0.373c0.121-0.094,0.261-0.16,0.423-0.201
			c0.157-0.041,0.331-0.061,0.512-0.061s0.354,0.02,0.519,0.061c0.162,0.041,0.305,0.107,0.426,0.201
			c0.117,0.092,0.212,0.221,0.283,0.373c0.068,0.154,0.104,0.342,0.104,0.57c0,0.228-0.035,0.422-0.104,0.569
			c-0.07,0.156-0.166,0.279-0.283,0.373c-0.122,0.094-0.264,0.159-0.426,0.193c-0.162,0.041-0.336,0.059-0.519,0.059
			c-0.182,0-0.354-0.018-0.512-0.059c-0.162-0.034-0.302-0.101-0.423-0.193c-0.12-0.094-0.219-0.217-0.291-0.373
			c-0.07-0.147-0.104-0.342-0.104-0.569C16.671,454.817,16.704,454.629,16.774,454.475z"/>
	</g>
	<path fill="#F44336" d="M17.999,473.498c-6.89,0-12.498,5.605-12.498,12.502c0,6.895,5.608,12.498,12.498,12.498
		c6.896,0,12.502-5.604,12.502-12.498C30.501,479.105,24.894,473.498,17.999,473.498z"/>
	<g>
		<rect x="16.728" y="479.497" fill="#FFFFFF" width="2.549" height="9.345"/>
		<path fill="#FFFFFF" d="M16.722,490.66c0.076-0.158,0.179-0.293,0.304-0.389c0.126-0.098,0.272-0.167,0.44-0.21
			c0.164-0.042,0.344-0.063,0.532-0.063s0.37,0.021,0.539,0.063c0.17,0.043,0.317,0.112,0.444,0.21
			c0.123,0.096,0.221,0.229,0.294,0.389c0.071,0.161,0.108,0.356,0.108,0.595c0,0.237-0.037,0.438-0.108,0.595
			c-0.073,0.162-0.173,0.291-0.294,0.389c-0.127,0.099-0.275,0.165-0.444,0.201c-0.169,0.043-0.351,0.061-0.539,0.061
			s-0.368-0.018-0.532-0.061c-0.168-0.036-0.314-0.104-0.44-0.201c-0.125-0.098-0.228-0.227-0.304-0.389
			c-0.072-0.155-0.107-0.356-0.107-0.595C16.614,491.018,16.649,490.823,16.722,490.66z"/>
	</g>
	<path fill="#F44336" d="M17.999,508.998c-7.166,0-12.998,5.83-12.998,13.002c0,7.17,5.832,12.998,12.998,12.998
		c7.171,0,13.002-5.828,13.002-12.998C31.001,514.828,25.17,508.998,17.999,508.998z"/>
	<g>
		<rect x="16.677" y="515.239" fill="#FFFFFF" width="2.65" height="9.717"/>
		<path fill="#FFFFFF" d="M16.671,526.848c0.079-0.166,0.186-0.305,0.315-0.404c0.131-0.102,0.284-0.174,0.458-0.219
			c0.172-0.043,0.359-0.064,0.555-0.064c0.196,0,0.385,0.021,0.561,0.064c0.178,0.045,0.33,0.117,0.463,0.219
			c0.127,0.101,0.229,0.238,0.306,0.404c0.075,0.168,0.113,0.371,0.113,0.617c0,0.248-0.039,0.457-0.113,0.619
			c-0.076,0.168-0.179,0.303-0.306,0.403c-0.133,0.103-0.287,0.171-0.463,0.209c-0.176,0.045-0.364,0.063-0.561,0.063
			c-0.195,0-0.383-0.019-0.555-0.063c-0.174-0.038-0.327-0.106-0.458-0.209c-0.13-0.102-0.236-0.235-0.315-0.403
			c-0.076-0.162-0.111-0.371-0.111-0.619C16.558,527.219,16.595,527.016,16.671,526.848z"/>
	</g>
	<path fill="#F44336" d="M17.999,544.498c-7.441,0-13.498,6.056-13.498,13.502c0,7.444,6.057,13.498,13.498,13.498
		c7.446,0,13.502-6.054,13.502-13.498C31.501,550.554,25.445,544.498,17.999,544.498z"/>
	<g>
		<rect x="16.625" y="550.979" fill="#FFFFFF" width="2.753" height="10.09"/>
		<path fill="#FFFFFF" d="M16.619,563.033c0.082-0.173,0.192-0.315,0.327-0.42c0.137-0.104,0.295-0.181,0.477-0.228
			c0.178-0.044,0.373-0.066,0.575-0.066c0.203,0,0.399,0.022,0.582,0.066c0.185,0.047,0.343,0.122,0.479,0.228
			c0.133,0.104,0.24,0.247,0.318,0.42c0.078,0.176,0.118,0.387,0.118,0.642c0,0.258-0.04,0.475-0.118,0.644
			c-0.078,0.174-0.186,0.314-0.318,0.42c-0.137,0.105-0.297,0.177-0.479,0.217c-0.183,0.047-0.379,0.064-0.582,0.064
			c-0.202,0-0.397-0.018-0.575-0.064c-0.182-0.04-0.34-0.11-0.477-0.217c-0.135-0.104-0.245-0.246-0.327-0.42
			c-0.079-0.169-0.116-0.386-0.116-0.644C16.503,563.42,16.54,563.209,16.619,563.033z"/>
	</g>
	<path fill="#F44336" d="M17.999,579.998c-7.718,0-13.998,6.279-13.998,14.002c0,7.721,6.28,13.998,13.998,13.998
		c7.723,0,14.002-6.277,14.002-13.998C32.001,586.279,25.722,579.998,17.999,579.998z"/>
	<g>
		<rect x="16.574" y="586.719" fill="#FFFFFF" width="2.854" height="10.463"/>
		<path fill="#FFFFFF" d="M16.567,599.221c0.085-0.18,0.199-0.328,0.339-0.437c0.142-0.108,0.306-0.188,0.493-0.235
			c0.186-0.045,0.387-0.068,0.598-0.068s0.414,0.023,0.604,0.068c0.19,0.049,0.355,0.127,0.5,0.235
			c0.137,0.107,0.248,0.257,0.33,0.437c0.08,0.182,0.121,0.399,0.121,0.664c0,0.268-0.041,0.492-0.121,0.668
			c-0.082,0.18-0.192,0.326-0.33,0.436c-0.144,0.109-0.31,0.184-0.5,0.226c-0.188,0.049-0.393,0.065-0.604,0.065
			s-0.412-0.018-0.598-0.065c-0.188-0.042-0.352-0.115-0.493-0.226c-0.14-0.108-0.254-0.256-0.339-0.436
			c-0.082-0.176-0.12-0.4-0.12-0.668C16.447,599.62,16.485,599.403,16.567,599.221z"/>
	</g>
	<path fill="#F44336" d="M17.999,615.498c-7.994,0-14.498,6.505-14.498,14.502c0,7.995,6.504,14.498,14.498,14.498
		c7.997,0,14.502-6.503,14.502-14.498C32.501,622.003,25.996,615.498,17.999,615.498z"/>
	<g>
		<rect x="16.522" y="622.459" fill="#FFFFFF" width="2.957" height="10.836"/>
		<path fill="#FFFFFF" d="M16.515,635.406c0.09-0.187,0.207-0.34,0.353-0.451c0.147-0.112,0.317-0.193,0.511-0.244
			c0.192-0.047,0.401-0.07,0.619-0.07c0.219,0,0.43,0.023,0.625,0.07c0.197,0.051,0.368,0.132,0.518,0.244
			c0.142,0.111,0.256,0.266,0.34,0.451c0.084,0.188,0.127,0.415,0.127,0.688c0,0.276-0.043,0.51-0.127,0.691
			c-0.084,0.187-0.198,0.339-0.34,0.451c-0.148,0.113-0.32,0.188-0.518,0.232c-0.195,0.051-0.406,0.067-0.625,0.067
			c-0.218,0-0.427-0.018-0.619-0.067c-0.193-0.044-0.363-0.119-0.511-0.232c-0.146-0.112-0.263-0.266-0.353-0.451
			c-0.084-0.183-0.123-0.415-0.123-0.691C16.392,635.823,16.431,635.596,16.515,635.406z"/>
	</g>
	<path fill="#F44336" d="M17.999,650.998c-8.27,0-14.998,6.729-14.998,15.002c0,8.271,6.729,14.998,14.998,14.998
		c8.271,0,15.002-6.728,15.002-14.998C33.001,657.728,26.271,650.998,17.999,650.998z"/>
	<g>
		<rect x="16.472" y="658.198" fill="#FFFFFF" width="3.06" height="11.209"/>
		<path fill="#FFFFFF" d="M16.464,671.594c0.092-0.193,0.215-0.353,0.364-0.467c0.153-0.117,0.329-0.201,0.528-0.255
			c0.199-0.047,0.416-0.071,0.641-0.071s0.443,0.024,0.646,0.071c0.203,0.054,0.381,0.138,0.535,0.255
			c0.146,0.114,0.265,0.272,0.353,0.467c0.086,0.194,0.131,0.43,0.131,0.711c0,0.287-0.044,0.526-0.131,0.717
			c-0.088,0.191-0.206,0.35-0.353,0.467c-0.154,0.117-0.332,0.194-0.535,0.24c-0.203,0.053-0.422,0.07-0.646,0.07
			s-0.441-0.019-0.641-0.07c-0.2-0.046-0.375-0.123-0.528-0.24c-0.149-0.117-0.271-0.274-0.364-0.467
			c-0.088-0.189-0.128-0.43-0.128-0.717C16.336,672.024,16.376,671.788,16.464,671.594z"/>
	</g>
	<path fill="#F44336" d="M18.003,717.498c8.545,0,15.498-6.952,15.498-15.5s-6.953-15.5-15.498-15.5
		c-8.548,0-15.502,6.952-15.502,15.5S9.455,717.498,18.003,717.498z"/>
	<g>
		<rect x="16.421" y="693.94" fill="#FFFFFF" width="3.161" height="11.582"/>
		<path fill="#FFFFFF" d="M16.412,707.781c0.097-0.2,0.222-0.362,0.376-0.481c0.158-0.121,0.34-0.208,0.546-0.264
			c0.206-0.048,0.431-0.073,0.662-0.073s0.458,0.025,0.668,0.073c0.211,0.056,0.394,0.143,0.554,0.264
			c0.151,0.119,0.273,0.281,0.364,0.481c0.089,0.202,0.136,0.444,0.136,0.734c0,0.297-0.047,0.545-0.136,0.741
			c-0.091,0.196-0.213,0.36-0.364,0.481c-0.16,0.121-0.344,0.2-0.554,0.248c-0.21,0.056-0.437,0.072-0.668,0.072
			s-0.456-0.019-0.662-0.072c-0.206-0.048-0.388-0.127-0.546-0.248c-0.154-0.121-0.279-0.285-0.376-0.481
			c-0.091-0.196-0.132-0.444-0.132-0.741C16.28,708.225,16.321,707.983,16.412,707.781z"/>
	</g>
	<path fill="#F44336" d="M17.999,366.998c-6.063,0-10.998,4.933-10.998,11.002c0,6.067,4.936,10.998,10.998,10.998
		c6.068,0,11.002-4.931,11.002-10.998C29.001,371.931,24.067,366.998,17.999,366.998z"/>
	<g>
		<rect x="16.882" y="372.278" fill="#FFFFFF" width="2.242" height="8.226"/>
		<path fill="#FFFFFF" d="M16.878,382.102c0.065-0.139,0.156-0.258,0.266-0.342c0.111-0.086,0.24-0.146,0.389-0.185
			c0.145-0.039,0.302-0.057,0.469-0.057s0.326,0.018,0.475,0.057c0.149,0.037,0.279,0.099,0.391,0.185
			c0.107,0.084,0.195,0.203,0.259,0.342c0.063,0.141,0.097,0.313,0.097,0.523c0,0.209-0.033,0.387-0.097,0.521
			c-0.063,0.146-0.151,0.256-0.259,0.342c-0.111,0.086-0.242,0.147-0.391,0.178c-0.147,0.037-0.308,0.056-0.475,0.056
			s-0.324-0.019-0.469-0.056c-0.148-0.029-0.277-0.092-0.389-0.178c-0.109-0.086-0.2-0.197-0.266-0.342
			c-0.064-0.135-0.097-0.313-0.097-0.521C16.781,382.413,16.813,382.241,16.878,382.102z"/>
	</g>
	<rect y="0" fill="#607D8B" fill-opacity="0" width="36" height="720"/>
</g>
</svg>
